<svg width="167" height="56" viewBox="0 0 167 56" fill="none" xmlns="http://www.w3.org/2000/svg">
<g clip-path="url(#clip0_0_730)">
<rect width="167" height="56" rx="28" fill="url(#paint0_linear_0_730)"/>
<path d="M39.65 35.216C40.442 35.216 41.21 35.084 41.954 34.82C42.698 34.544 43.364 34.142 43.952 33.614C44.552 33.074 45.026 32.414 45.374 31.634C45.722 30.842 45.896 29.924 45.896 28.88V27.53H39.596V29.6H43.448V29.654C43.448 30.338 43.274 30.932 42.926 31.436C42.578 31.928 42.116 32.312 41.54 32.588C40.964 32.852 40.334 32.984 39.65 32.984C38.81 32.984 38.066 32.786 37.418 32.39C36.77 31.994 36.26 31.448 35.888 30.752C35.528 30.044 35.348 29.222 35.348 28.286C35.348 27.35 35.528 26.534 35.888 25.838C36.248 25.13 36.746 24.584 37.382 24.2C38.018 23.804 38.756 23.606 39.596 23.606C40.448 23.606 41.174 23.822 41.774 24.254C42.374 24.686 42.806 25.25 43.07 25.946L45.248 24.902C45.02 24.266 44.642 23.684 44.114 23.156C43.586 22.616 42.938 22.184 42.17 21.86C41.414 21.536 40.556 21.374 39.596 21.374C38.636 21.374 37.748 21.548 36.932 21.896C36.116 22.232 35.408 22.712 34.808 23.336C34.208 23.948 33.74 24.68 33.404 25.532C33.068 26.372 32.9 27.29 32.9 28.286C32.9 29.282 33.068 30.206 33.404 31.058C33.752 31.898 34.232 32.63 34.844 33.254C35.456 33.878 36.17 34.364 36.986 34.712C37.802 35.048 38.69 35.216 39.65 35.216ZM52.2791 35.216C53.2751 35.216 54.1451 34.994 54.8891 34.55C55.6451 34.094 56.1731 33.518 56.4731 32.822L54.5651 31.886C54.3491 32.258 54.0491 32.564 53.6651 32.804C53.2931 33.032 52.8371 33.146 52.2971 33.146C51.5891 33.146 50.9951 32.93 50.5151 32.498C50.0351 32.066 49.7591 31.49 49.6871 30.77H56.7431C56.7911 30.638 56.8211 30.488 56.8331 30.32C56.8571 30.14 56.8691 29.96 56.8691 29.78C56.8691 28.904 56.6831 28.106 56.3111 27.386C55.9391 26.666 55.3991 26.09 54.6911 25.658C53.9831 25.214 53.1191 24.992 52.0991 24.992C51.1871 24.992 50.3591 25.214 49.6151 25.658C48.8831 26.102 48.3011 26.708 47.8691 27.476C47.4491 28.232 47.2391 29.102 47.2391 30.086C47.2391 31.034 47.4491 31.898 47.8691 32.678C48.2891 33.458 48.8771 34.076 49.6331 34.532C50.3891 34.988 51.2711 35.216 52.2791 35.216ZM52.0991 26.936C52.7231 26.936 53.2391 27.128 53.6471 27.512C54.0671 27.884 54.3011 28.37 54.3491 28.97H49.7411C49.8731 28.322 50.1491 27.824 50.5691 27.476C51.0011 27.116 51.5111 26.936 52.0991 26.936ZM63.1206 35.108C63.5166 35.108 63.9066 35.078 64.2906 35.018V32.984C64.0626 33.02 63.8526 33.038 63.6606 33.038C63.0846 33.038 62.6646 32.906 62.4006 32.642C62.1366 32.378 62.0046 32 62.0046 31.508V27.314H64.2546V25.208H62.0046V22.976H59.6466V23.732C59.6466 24.212 59.5146 24.578 59.2506 24.83C58.9866 25.082 58.6146 25.208 58.1346 25.208H57.9546V27.314H59.6466V31.634C59.6466 32.726 59.9466 33.578 60.5466 34.19C61.1586 34.802 62.0166 35.108 63.1206 35.108ZM74.2774 35.216C75.2014 35.216 76.0114 35.048 76.7074 34.712C77.4034 34.376 77.9494 33.914 78.3454 33.326C78.7414 32.738 78.9394 32.06 78.9394 31.292C78.9394 29.504 77.8714 28.268 75.7354 27.584L73.2694 26.81C72.7894 26.654 72.4234 26.438 72.1714 26.162C71.9314 25.874 71.8114 25.544 71.8114 25.172C71.8114 24.68 71.9974 24.284 72.3694 23.984C72.7534 23.672 73.2574 23.516 73.8814 23.516C74.5774 23.516 75.1894 23.702 75.7174 24.074C76.2454 24.434 76.6414 24.95 76.9054 25.622L78.9214 24.722C78.5614 23.714 77.9314 22.904 77.0314 22.292C76.1434 21.68 75.0934 21.374 73.8814 21.374C73.0054 21.374 72.2254 21.542 71.5414 21.878C70.8694 22.202 70.3414 22.658 69.9574 23.246C69.5854 23.834 69.3994 24.512 69.3994 25.28C69.3994 26.156 69.6634 26.918 70.1914 27.566C70.7194 28.202 71.5054 28.688 72.5494 29.024L75.1234 29.852C75.5914 30.008 75.9394 30.212 76.1674 30.464C76.4074 30.716 76.5274 31.04 76.5274 31.436C76.5274 31.928 76.3294 32.324 75.9334 32.624C75.5494 32.924 75.0394 33.074 74.4034 33.074C73.6354 33.074 72.9454 32.858 72.3334 32.426C71.7214 31.982 71.2534 31.376 70.9294 30.608L68.8954 31.49C69.1354 32.234 69.5134 32.888 70.0294 33.452C70.5574 34.004 71.1814 34.436 71.9014 34.748C72.6334 35.06 73.4254 35.216 74.2774 35.216ZM85.4097 35.108C85.8057 35.108 86.1957 35.078 86.5797 35.018V32.984C86.3517 33.02 86.1417 33.038 85.9497 33.038C85.3737 33.038 84.9537 32.906 84.6897 32.642C84.4257 32.378 84.2937 32 84.2937 31.508V27.314H86.5437V25.208H84.2937V22.976H81.9357V23.732C81.9357 24.212 81.8037 24.578 81.5397 24.83C81.2757 25.082 80.9037 25.208 80.4237 25.208H80.2437V27.314H81.9357V31.634C81.9357 32.726 82.2357 33.578 82.8357 34.19C83.4477 34.802 84.3057 35.108 85.4097 35.108ZM91.2985 35.216C92.5705 35.216 93.5905 34.796 94.3585 33.956V35H96.5905V28.484C96.5905 27.8 96.4165 27.194 96.0685 26.666C95.7205 26.138 95.2405 25.73 94.6285 25.442C94.0285 25.142 93.3265 24.992 92.5225 24.992C91.5385 24.992 90.6625 25.226 89.8945 25.694C89.1265 26.162 88.5985 26.78 88.3105 27.548L90.2365 28.484C90.4165 28.04 90.6985 27.686 91.0825 27.422C91.4665 27.146 91.9165 27.008 92.4325 27.008C92.9725 27.008 93.4045 27.152 93.7285 27.44C94.0645 27.716 94.2325 28.064 94.2325 28.484V28.808L91.3165 29.276C90.1645 29.468 89.3125 29.834 88.7605 30.374C88.2085 30.914 87.9325 31.592 87.9325 32.408C87.9325 33.272 88.2385 33.956 88.8505 34.46C89.4625 34.964 90.2785 35.216 91.2985 35.216ZM90.3805 32.318C90.3805 31.634 90.8425 31.202 91.7665 31.022L94.2325 30.608V31.004C94.2325 31.676 93.9985 32.246 93.5305 32.714C93.0745 33.182 92.4745 33.416 91.7305 33.416C91.3345 33.416 91.0105 33.32 90.7585 33.128C90.5065 32.924 90.3805 32.654 90.3805 32.318ZM98.7699 35H101.128V29.546C101.128 28.802 101.332 28.226 101.74 27.818C102.16 27.398 102.7 27.188 103.36 27.188H104.206V25.1H103.63C103.03 25.1 102.502 25.208 102.046 25.424C101.59 25.64 101.236 26.03 100.984 26.594V25.208H98.7699V35ZM110.23 35.108C110.626 35.108 111.016 35.078 111.4 35.018V32.984C111.172 33.02 110.962 33.038 110.77 33.038C110.194 33.038 109.774 32.906 109.51 32.642C109.246 32.378 109.114 32 109.114 31.508V27.314H111.364V25.208H109.114V22.976H106.756V23.732C106.756 24.212 106.624 24.578 106.36 24.83C106.096 25.082 105.724 25.208 105.244 25.208H105.064V27.314H106.756V31.634C106.756 32.726 107.056 33.578 107.656 34.19C108.268 34.802 109.126 35.108 110.23 35.108ZM117.758 35.216C118.754 35.216 119.624 34.994 120.368 34.55C121.124 34.094 121.652 33.518 121.952 32.822L120.044 31.886C119.828 32.258 119.528 32.564 119.144 32.804C118.772 33.032 118.316 33.146 117.776 33.146C117.068 33.146 116.474 32.93 115.994 32.498C115.514 32.066 115.238 31.49 115.166 30.77H122.222C122.27 30.638 122.3 30.488 122.312 30.32C122.336 30.14 122.348 29.96 122.348 29.78C122.348 28.904 122.162 28.106 121.79 27.386C121.418 26.666 120.878 26.09 120.17 25.658C119.462 25.214 118.598 24.992 117.578 24.992C116.666 24.992 115.838 25.214 115.094 25.658C114.362 26.102 113.78 26.708 113.348 27.476C112.928 28.232 112.718 29.102 112.718 30.086C112.718 31.034 112.928 31.898 113.348 32.678C113.768 33.458 114.356 34.076 115.112 34.532C115.868 34.988 116.75 35.216 117.758 35.216ZM117.578 26.936C118.202 26.936 118.718 27.128 119.126 27.512C119.546 27.884 119.78 28.37 119.828 28.97H115.22C115.352 28.322 115.628 27.824 116.048 27.476C116.48 27.116 116.99 26.936 117.578 26.936ZM128.689 35.216C129.325 35.216 129.913 35.108 130.453 34.892C130.993 34.664 131.443 34.34 131.803 33.92V35H134.035V21.374H131.677V26.198C130.945 25.394 129.943 24.992 128.671 24.992C127.747 24.992 126.907 25.22 126.151 25.676C125.407 26.12 124.819 26.732 124.387 27.512C123.955 28.28 123.739 29.144 123.739 30.104C123.739 31.064 123.955 31.934 124.387 32.714C124.819 33.482 125.407 34.094 126.151 34.55C126.895 34.994 127.741 35.216 128.689 35.216ZM128.941 33.056C128.413 33.056 127.939 32.93 127.519 32.678C127.099 32.426 126.769 32.078 126.529 31.634C126.301 31.178 126.187 30.668 126.187 30.104C126.187 29.54 126.301 29.036 126.529 28.592C126.769 28.148 127.099 27.8 127.519 27.548C127.939 27.284 128.413 27.152 128.941 27.152C129.469 27.152 129.937 27.278 130.345 27.53C130.765 27.782 131.089 28.13 131.317 28.574C131.557 29.018 131.677 29.528 131.677 30.104C131.677 30.68 131.557 31.19 131.317 31.634C131.089 32.078 130.765 32.426 130.345 32.678C129.937 32.93 129.469 33.056 128.941 33.056Z" fill="white"/>
</g>
<defs>
<linearGradient id="paint0_linear_0_730" x1="-45.3544" y1="-30.4173" x2="-45.3544" y2="56" gradientUnits="userSpaceOnUse">
<stop stop-color="#4851FF"/>
<stop offset="1" stop-color="#F02AA6"/>
</linearGradient>
<clipPath id="clip0_0_730">
<rect width="167" height="56" fill="white"/>
</clipPath>
</defs>
</svg>
